<svg width="130" height="130" viewBox="0 0 130 130" fill="none" xmlns="http://www.w3.org/2000/svg">
<path fill-rule="evenodd" clip-rule="evenodd" d="M72.7013 75.5609C83.2692 75.5609 91.8362 66.9939 91.8362 56.4259C91.8362 56.0022 91.8225 55.5817 91.7953 55.1648C103.834 57.9994 112.796 68.8096 112.796 81.7142V92.7092H57.2986C47.4015 92.7092 39.2593 85.1953 38.2656 75.5609H72.7013ZM38.2656 75.5609H17.2041V64.5658C17.2041 49.5013 29.4163 37.291 44.4808 37.291H72.7013C82.8455 37.291 91.146 45.1848 91.7953 55.1648C89.7803 54.6904 87.679 54.4394 85.5191 54.4394H57.2986C46.7307 54.4394 38.1637 63.0064 38.1637 73.5743C38.1637 74.2451 38.1982 74.9079 38.2656 75.5609Z" fill="#989898"/>
</svg>
