<svg width="58" height="79" viewBox="0 0 58 79" fill="none" xmlns="http://www.w3.org/2000/svg">
<path d="M29 49.25C37.1095 49.25 43.6818 42.7036 43.6818 34.625V15.125C43.6818 7.04643 37.1095 0.5 29 0.5C20.8905 0.5 14.3182 7.04643 14.3182 15.125V34.625C14.3182 42.7036 20.8905 49.25 29 49.25ZM57.5 34.4509C57.5 34.0679 57.1891 33.7545 56.8091 33.7545H51.6273C51.2473 33.7545 50.9364 34.0679 50.9364 34.4509C50.9364 46.6645 41.1168 56.5625 29 56.5625C16.8832 56.5625 7.06364 46.6645 7.06364 34.4509C7.06364 34.0679 6.75273 33.7545 6.37273 33.7545H1.19091C0.810909 33.7545 0.5 34.0679 0.5 34.4509C0.5 49.1368 11.4336 61.2547 25.5455 62.9696V71.8839H12.9968C11.8136 71.8839 10.8636 73.1288 10.8636 74.6696V77.8036C10.8636 78.1866 11.1055 78.5 11.3991 78.5H46.6009C46.8945 78.5 47.1364 78.1866 47.1364 77.8036V74.6696C47.1364 73.1288 46.1864 71.8839 45.0032 71.8839H32.1091V63.0132C46.385 61.4462 57.5 49.2587 57.5 34.4509Z" fill="white"/>
</svg>
