<svg width="91" height="101" viewBox="0 0 91 101" fill="none" xmlns="http://www.w3.org/2000/svg">
<path fill-rule="evenodd" clip-rule="evenodd" d="M78.7362 80.624H87.3428C88.1757 80.624 88.8975 80.3464 89.5083 79.7356C90.1191 79.1803 90.3967 78.5695 90.3967 77.9588V3.55368C90.3967 2.49868 90.0636 1.61026 89.4528 0.943945C88.842 0.333157 88.1202 0 87.2873 0C86.8986 0 86.3989 0.166579 85.8991 0.444209L67.2979 11.2163C66.1318 11.9381 65.521 12.8821 65.521 14.1592V22.3771C65.521 23.2099 65.7986 23.9873 66.3539 24.5981C66.9092 25.2089 67.5755 25.542 68.4084 25.542C68.9081 25.542 69.4634 25.3755 69.9631 25.0978L75.6268 21.8218V77.5145C75.6268 78.2364 75.9599 78.9582 76.5707 79.6245C77.1815 80.2909 77.9034 80.624 78.7362 80.624ZM38.4241 59.1333C35.7033 61.9096 32.4273 63.2977 28.596 63.2977C26.0418 63.2977 23.7097 62.6869 21.5442 61.4098C19.3786 60.1327 17.7129 58.4114 16.4357 56.1349C15.1586 53.8583 14.4923 51.2486 14.4923 48.3057C14.4923 45.3073 15.1586 42.6975 16.4357 40.4209C17.7129 38.1999 19.3786 36.4786 21.5442 35.2015C23.7097 33.9799 26.0418 33.3691 28.596 33.3691C31.1502 33.3691 33.4823 33.9799 35.5923 35.2015C37.7023 36.4786 39.3681 38.1999 40.6452 40.4209C41.9223 42.6975 42.5331 45.3073 42.5331 48.3057C42.5331 52.7478 41.1449 56.357 38.4241 59.1333ZM13.9926 99.1676C18.2126 100.389 22.2105 101 26.0418 101C32.7604 101 38.4241 99.7229 43.0328 97.2242C47.6415 94.7255 51.1396 90.8387 53.5272 85.5637C55.9149 80.2887 57.1364 73.5145 57.1364 65.2411V23.1523C57.1364 21.2089 56.1925 20.2649 54.2491 20.2649H45.9757C44.0323 20.2649 43.0328 21.2089 43.0328 23.1523V26.3173C41.3115 24.2628 39.0904 22.597 36.3696 21.2644C33.5933 19.9318 30.6505 19.2655 27.5965 19.2655C22.6547 19.2655 18.1015 20.5426 13.9371 23.0968C9.71708 25.7065 6.32998 29.2047 3.83131 33.5912C1.2771 37.9778 0 42.9752 0 48.4722C0 53.9693 1.22158 58.8001 3.66473 62.9646C6.05235 67.1846 9.3284 70.4606 13.4929 72.8482C17.6018 75.2359 22.2105 76.4019 27.2634 76.4019C30.6505 76.4019 33.6489 75.7356 36.2031 74.4585C38.7017 73.1814 40.7562 71.6822 42.3109 69.9609C42.2554 75.6801 40.7562 79.9001 37.8689 82.6208C34.926 85.3416 30.8726 86.7298 25.6531 86.7298C20.045 86.7298 14.4368 84.8974 8.82866 81.2327C8.16235 80.7885 7.49603 80.5664 6.88525 80.5664C5.83025 80.5664 4.99736 81.0661 4.49762 82.1211L0.832893 89.284C0.555262 89.8948 0.388683 90.5056 0.388683 91.1163C0.388683 92.1158 0.888419 92.9487 1.94342 93.6706C5.77472 96.1137 9.77261 97.9461 13.9926 99.1676Z" fill="#C4170C"/>
</svg>
