<svg width="54" height="62" viewBox="0 0 54 62" fill="none" xmlns="http://www.w3.org/2000/svg">
<path d="M53.5918 50.1905V53.1429H0.591797V50.1905L6.48069 44.2857V26.5714C6.48069 17.419 12.4579 9.35905 21.2029 6.76095V5.90476C21.2029 4.33872 21.8233 2.83682 22.9277 1.72946C24.0321 0.622107 25.53 0 27.0918 0C28.6536 0 30.1515 0.622107 31.2559 1.72946C32.3603 2.83682 32.9807 4.33872 32.9807 5.90476V6.76095C41.7257 9.35905 47.7029 17.419 47.7029 26.5714V44.2857L53.5918 50.1905ZM32.9807 56.0952C32.9807 57.6613 32.3603 59.1632 31.2559 60.2705C30.1515 61.3779 28.6536 62 27.0918 62C25.53 62 24.0321 61.3779 22.9277 60.2705C21.8233 59.1632 21.2029 57.6613 21.2029 56.0952" fill="#989898"/>
</svg>
