<svg width="55" height="54" viewBox="0 0 55 54" fill="none" xmlns="http://www.w3.org/2000/svg">
<path d="M39.1632 33.9429L54.5918 49.3714L49.9632 54L34.5347 38.5714V36.1337L33.7015 35.2697C30.0728 38.3982 25.4401 40.1177 20.6489 40.1143C15.3295 40.1143 10.2278 38.0011 6.4664 34.2397C2.70495 30.4782 0.591797 25.3766 0.591797 20.0571C0.591797 14.7377 2.70495 9.63605 6.4664 5.8746C10.2278 2.11316 15.3295 0 20.6489 0C25.9684 0 31.07 2.11316 34.8315 5.8746C38.5929 9.63605 40.7061 14.7377 40.7061 20.0571C40.7061 25.0251 38.8855 29.592 35.8615 33.1097L36.7255 33.9429H39.1632ZM20.6489 33.9429C28.3632 33.9429 34.5347 27.7714 34.5347 20.0571C34.5347 12.3429 28.3632 6.17143 20.6489 6.17143C12.9347 6.17143 6.76323 12.3429 6.76323 20.0571C6.76323 27.7714 12.9347 33.9429 20.6489 33.9429Z" fill="#989898"/>
</svg>
